<svg xmlns="http://www.w3.org/2000/svg" viewBox="0 0 200 200" style="--skin-base: #FDDBB4;--skin-ear: #F5C89A;--skin-shadow: #E0A473;--lip-color: #E8967A;--hair-color: #F0F0F0;--eye-color: #6B3A2A"><defs><clipPath id="hat-clip"><rect x="0" y="56" width="200" height="144"/></clipPath><clipPath id="helmet-clip"><ellipse cx="100" cy="78" rx="57" ry="62"/></clipPath></defs><g class="layer-body">
      <path d="M30,200 Q30,158 55,150 Q75,143 88,140
              L88,145 Q90,148 100,148 Q110,148 112,145 L112,140
              Q125,143 145,150 Q170,158 170,200 Z" fill="#6B7280"/>
      <!-- Collar line -->
      <path d="M88,145 Q90,150 100,151 Q110,150 112,145"
            fill="none" stroke="#5B6370" stroke-width="1.5" stroke-linecap="round"/></g><rect class="layer-neck" x="88" y="135" width="24" height="22" rx="8" fill="var(--skin-base)"/><g class="layer-head"><g class="layer-ears"><ellipse cx="48" cy="90" rx="8" ry="10" fill="var(--skin-ear)"/><ellipse cx="152" cy="90" rx="8" ry="10" fill="var(--skin-ear)"/></g><g class="layer-hair-back">
      <ellipse cx="100" cy="62" rx="54" ry="34" fill="var(--hair-color)"/></g><ellipse class="layer-face" cx="100" cy="88" rx="52" ry="56" fill="var(--skin-base)"/><g class="layer-eyes"><g>
      <circle cx="74" cy="88" r="11" fill="#FFF"/>
      <circle cx="126" cy="88" r="11" fill="#FFF"/></g><g class="pupils"><g>
      <circle cx="74" cy="88" r="9" fill="var(--eye-color)"/>
      <circle cx="74" cy="88" r="5" fill="#1A1A2E"/>
      <circle cx="77" cy="85" r="2" fill="#FFF"/>
      <circle cx="126" cy="88" r="9" fill="var(--eye-color)"/>
      <circle cx="126" cy="88" r="5" fill="#1A1A2E"/>
      <circle cx="129" cy="85" r="2" fill="#FFF"/></g></g></g><g class="layer-brows"><rect x="63" y="72" width="22" height="5" rx="3" fill="var(--hair-color)"/><rect x="115" y="72" width="22" height="5" rx="3" fill="var(--hair-color)"/></g><path class="layer-nose" d="M97,105 Q100,112 103,105" stroke="var(--skin-shadow)" stroke-width="2" fill="none" stroke-linecap="round"/><path class="layer-mouth" d="M84,120 Q100,132 116,120" stroke="var(--lip-color)" stroke-width="2.5" fill="none" stroke-linecap="round"></path><g class="layer-mustache"></g><g class="layer-beard"><path d="M59.1,107.04 Q60.21,109.52 60.83,110.76 Q61.45,112 62.13,113.24 Q62.82,114.48 63.59,115.72 Q64.35,116.96 65.2,118.2 Q66.04,119.44 66.98,120.68 Q67.91,121.92 68.95,123.16 Q69.98,124.4 71.14,125.64 Q72.29,126.88 73.58,128.12 Q74.87,129.36 76.33,130.6 Q77.79,131.84 79.46,133.08 Q81.13,134.32 83.1,135.56 Q85.06,136.8 87.48,138.04 Q89.89,139.28 93.17,140.52 Q96.44,141.76 100,141.76 Q103.56,141.76 106.83,140.52 Q110.11,139.28 112.52,138.04 Q114.94,136.8 116.9,135.56 Q118.87,134.32 120.54,133.08 Q122.21,131.84 123.67,130.6 Q125.13,129.36 126.42,128.12 Q127.71,126.88 128.86,125.64 Q130.02,124.4 131.05,123.16 Q132.09,121.92 133.02,120.68 Q133.96,119.44 134.8,118.2 Q135.65,116.96 136.41,115.72 Q137.18,114.48 137.87,113.24 Q138.55,112 139.17,110.76 Q139.79,109.52 140.35,108.28 Q140.9,107.04 142.9,107.04 Q144.9,107.04 144.42,108.36 Q143.95,109.68 143.39,111 Q142.84,112.32 142.21,113.64 Q141.58,114.96 140.86,116.28 Q140.14,117.6 139.33,118.92 Q138.52,120.24 137.6,121.56 Q136.68,122.88 135.64,124.2 Q134.6,125.52 133.42,126.84 Q132.24,128.16 130.89,129.48 Q129.53,130.8 127.96,132.12 Q126.39,133.44 124.53,134.76 Q122.66,136.08 120.35,137.4 Q118.04,138.72 114.91,140.04 Q111.78,141.36 105.89,142.68 Q100,144 100,144 Q100,144 94.11,142.68 Q88.22,141.36 85.09,140.04 Q81.96,138.72 79.65,137.4 Q77.34,136.08 75.47,134.76 Q73.61,133.44 72.04,132.12 Q70.47,130.8 69.11,129.48 Q67.76,128.16 66.58,126.84 Q65.4,125.52 64.36,124.2 Q63.32,122.88 62.4,121.56 Q61.48,120.24 60.67,118.92 Q59.86,117.6 59.14,116.28 Q58.42,114.96 57.79,113.64 Q57.16,112.32 56.61,111 Q56.05,109.68 55.58,108.36 Q55.1,107.04 57.1,107.04 Q59.1,107.04 59.65,108.28 Z" fill="#F0F0F0" opacity="0.22"/></g><g class="layer-glasses"></g><g class="layer-hair-front">
      <path d="M48,75 Q48,32 100,28 Q152,32 152,75 Q140,58 100,54 Q60,58 48,75 Z"
            fill="var(--hair-color)"/></g><g class="layer-accessory"></g></g></svg>
